<?xml version="1.0" standalone="no"?>
<!DOCTYPE svg PUBLIC "-//W3C//DTD SVG 20010904//EN"
 "http://www.w3.org/TR/2001/REC-SVG-20010904/DTD/svg10.dtd">
<svg version="1.0" xmlns="http://www.w3.org/2000/svg"
 width="700.000000pt" height="700.000000pt" viewBox="0 0 700.000000 700.000000"
 preserveAspectRatio="xMidYMid meet">
<metadata>
Created by potrace 1.11, written by Peter Selinger 2001-2013
</metadata>
<g transform="translate(0.000000,700.000000) scale(0.100000,-0.100000)"
fill="#000000" stroke="none">
<path d="M3270 6964 c-765 -70 -1374 -308 -1950 -765 -135 -107 -412 -384
-519 -519 -419 -529 -662 -1104 -748 -1775 -25 -196 -25 -614 0 -810 86 -671
329 -1246 748 -1775 107 -135 384 -412 519 -519 529 -419 1104 -662 1775 -748
196 -25 614 -25 810 0 671 86 1246 329 1775 748 135 107 412 384 519 519 419
529 662 1104 748 1775 25 196 25 614 0 810 -86 671 -329 1246 -748 1775 -107
135 -384 412 -519 519 -521 413 -1087 654 -1740 742 -139 19 -556 33 -670 23z
m550 -185 c1209 -113 2265 -898 2730 -2030 164 -399 242 -800 242 -1244 0
-297 -28 -539 -93 -800 -297 -1187 -1217 -2107 -2404 -2404 -261 -65 -501 -93
-795 -93 -294 0 -534 28 -795 93 -1187 297 -2107 1217 -2404 2404 -65 261 -93
501 -93 795 0 225 9 341 43 550 167 1023 834 1925 1772 2396 552 278 1169 392
1797 333z"/>
<path d="M3805 6708 c-2 -7 -84 -238 -181 -513 -97 -275 -181 -506 -186 -512
-7 -8 -36 -13 -77 -13 -36 0 -111 -7 -165 -15 -55 -8 -100 -14 -102 -13 -1 2
-28 234 -60 517 -38 332 -61 504 -66 485 -4 -16 -23 -247 -43 -514 -20 -267
-39 -498 -43 -514 -6 -25 -17 -32 -97 -61 -49 -17 -123 -46 -163 -63 l-72 -31
-13 32 c-7 18 -91 231 -187 474 -96 243 -176 440 -178 438 -2 -2 40 -235 92
-518 53 -284 96 -520 96 -525 0 -5 -26 -25 -57 -45 -32 -19 -97 -67 -145 -105
l-87 -70 -303 408 c-166 225 -304 407 -305 406 -2 -1 100 -218 226 -482 l229
-479 -40 -45 c-21 -25 -73 -89 -115 -142 -50 -64 -80 -95 -87 -89 -23 18 -752
595 -771 610 -19 15 -19 15 -4 -4 9 -11 165 -194 347 -407 l331 -388 -43 -92
c-24 -51 -56 -128 -72 -171 -21 -56 -33 -76 -44 -73 -8 2 -213 90 -454 195
-242 105 -441 189 -443 188 -1 -2 190 -136 427 -298 319 -218 428 -298 424
-310 -11 -39 -35 -191 -41 -266 -5 -72 -8 -83 -25 -83 -10 0 -231 31 -490 70
-259 38 -473 68 -475 67 -2 -2 219 -82 489 -178 l493 -174 7 -92 c4 -50 14
-133 23 -183 9 -51 15 -93 13 -95 -2 -1 -210 -26 -463 -55 -436 -49 -562 -67
-506 -69 45 -2 927 -71 977 -76 l51 -6 33 -87 c18 -48 50 -125 71 -171 22 -46
38 -85 37 -86 -2 -1 -201 -80 -443 -175 -242 -95 -451 -179 -465 -187 l-25
-13 25 5 c100 21 998 185 1010 185 8 -1 36 -31 62 -68 27 -37 77 -101 113
-142 35 -41 61 -78 57 -81 -4 -4 -185 -138 -402 -299 -217 -161 -399 -297
-405 -302 -12 -11 62 24 579 271 208 100 382 181 387 181 4 0 48 -32 96 -71
48 -39 111 -85 140 -102 29 -18 53 -36 53 -40 0 -5 -138 -183 -306 -395 -169
-213 -312 -394 -318 -402 -14 -20 -31 -34 409 341 209 178 387 330 396 337 14
10 29 7 90 -19 41 -18 115 -47 164 -65 60 -22 89 -37 87 -46 -1 -8 -88 -212
-193 -454 -215 -494 -214 -493 -201 -479 6 6 146 208 312 450 166 242 303 441
304 443 2 1 47 -5 102 -13 54 -8 128 -15 164 -15 36 0 70 -4 76 -8 7 -5 -12
-159 -63 -497 -40 -269 -72 -499 -70 -510 1 -11 76 189 166 445 90 256 172
488 183 516 l18 51 93 12 c50 7 125 19 166 27 40 9 77 12 81 7 4 -4 33 -242
66 -528 44 -389 61 -510 66 -480 4 22 24 251 43 510 19 259 38 493 41 522 l6
52 67 26 c36 15 105 45 154 67 48 23 89 39 90 37 2 -2 90 -225 197 -496 107
-271 196 -491 198 -489 1 2 -42 247 -97 545 -56 297 -101 547 -101 555 0 7 39
45 88 84 48 39 105 86 127 105 l40 34 314 -424 c373 -503 343 -463 335 -439
-4 10 -116 246 -249 524 l-242 507 60 75 c33 41 77 101 98 132 l37 58 373
-297 c477 -378 507 -401 488 -378 -9 11 -181 212 -382 448 l-365 427 54 133
c30 72 54 137 54 144 0 6 4 14 10 18 5 3 233 -91 506 -210 274 -118 499 -214
500 -212 2 2 -209 149 -469 327 -259 178 -474 325 -476 326 -2 2 4 52 13 113
9 60 16 132 16 160 0 28 4 51 8 51 5 0 251 -36 547 -80 296 -44 540 -79 542
-77 1 2 -244 91 -546 197 l-548 194 -7 76 c-3 41 -12 111 -20 155 -8 44 -11
83 -8 86 4 3 237 32 517 63 469 53 613 73 560 75 -104 5 -1088 83 -1113 89
-31 7 -35 14 -88 142 -30 74 -57 140 -60 146 -3 7 143 70 393 169 613 243 624
247 621 250 -2 2 -241 -41 -531 -95 -291 -54 -546 -101 -567 -105 -37 -6 -38
-6 -86 62 -27 37 -72 95 -100 129 l-52 60 431 320 c237 175 438 325 446 331
22 18 -70 -25 -584 -271 l-450 -215 -26 22 c-80 66 -178 145 -203 163 l-30 21
288 364 c360 453 395 498 371 478 -11 -9 -206 -175 -434 -369 -395 -337 -415
-353 -440 -342 -228 95 -281 118 -281 125 0 5 79 192 176 415 242 558 247 568
235 557 -5 -5 -145 -208 -311 -450 -166 -242 -307 -446 -314 -452 -9 -10 -26
-10 -81 2 -39 8 -114 20 -168 26 -98 12 -98 12 -93 38 3 14 37 242 76 506 39
264 72 488 74 498 5 19 -2 23 -9 5z m20 -1232 c425 -77 793 -267 1088 -563
376 -376 587 -883 587 -1413 0 -227 -31 -411 -106 -638 -97 -291 -261 -555
-481 -775 -296 -297 -659 -484 -1093 -564 -134 -25 -506 -25 -640 0 -434 80
-797 267 -1093 564 -298 297 -484 658 -564 1093 -25 134 -25 506 0 640 80 435
266 796 564 1093 256 257 575 438 926 527 61 15 148 33 192 39 44 6 94 13 110
15 70 10 424 -3 510 -18z"/>
<path d="M3670 4074 c-459 -333 -841 -611 -848 -618 -11 -11 54 -71 358 -330
204 -175 373 -316 375 -314 1 1 170 332 375 733 205 402 419 821 476 933 58
111 104 202 102 202 -2 0 -379 -273 -838 -606z"/>
</g>
</svg>
